<?xml version="1.0" encoding="us-ascii" standalone="no"?><svg xmlns="http://www.w3.org/2000/svg" xmlns:xlink="http://www.w3.org/1999/xlink" contentStyleType="text/css" height="424px" preserveAspectRatio="none" style="width:926px;height:424px;background:#FFFFFF;" version="1.1" viewBox="0 0 926 424" width="926px" zoomAndPan="magnify"><defs/><g><!--class RateLimiter--><g id="elem_RateLimiter"><rect codeLine="1" fill="#F1F1F1" height="64.2969" id="RateLimiter" rx="2.5" ry="2.5" style="stroke:#181818;stroke-width:0.5;" width="109" x="411" y="147.59"/><ellipse cx="426" cy="163.59" fill="#ADD1B2" rx="11" ry="11" style="stroke:#181818;stroke-width:1.0;"/><path d="M428.9688,169.2306 Q428.3906,169.5275 427.75,169.6681 Q427.1094,169.8244 426.4063,169.8244 Q423.9063,169.8244 422.5781,168.1838 Q421.2656,166.5275 421.2656,163.4025 Q421.2656,160.2775 422.5781,158.6213 Q423.9063,156.965 426.4063,156.965 Q427.1094,156.965 427.75,157.1213 Q428.4063,157.2775 428.9688,157.5744 L428.9688,160.2931 Q428.3438,159.715 427.75,159.4494 Q427.1563,159.1681 426.5313,159.1681 Q425.1875,159.1681 424.5,160.2463 Q423.8125,161.3088 423.8125,163.4025 Q423.8125,165.4963 424.5,166.5744 Q425.1875,167.6369 426.5313,167.6369 Q427.1563,167.6369 427.75,167.3713 Q428.3438,167.09 428.9688,166.5119 L428.9688,169.2306 Z " fill="#000000"/><text fill="#000000" font-family="sans-serif" font-size="14" lengthAdjust="spacing" textLength="77" x="440" y="168.4367">RateLimiter</text><line style="stroke:#181818;stroke-width:0.5;" x1="412" x2="519" y1="179.59" y2="179.59"/><line style="stroke:#181818;stroke-width:0.5;" x1="412" x2="519" y1="187.59" y2="187.59"/><ellipse cx="422" cy="201.2384" fill="#84BE84" rx="3" ry="3" style="stroke:#038048;stroke-width:1.0;"/><text fill="#000000" font-family="sans-serif" font-size="14" lengthAdjust="spacing" textLength="79" x="431" y="204.5851">Allow() bool</text></g><!--class FixedWindowRateLimiter--><g id="elem_FixedWindowRateLimiter"><rect codeLine="5" fill="#F1F1F1" height="145.7813" id="FixedWindowRateLimiter" rx="2.5" ry="2.5" style="stroke:#181818;stroke-width:0.5;" width="199" x="7" y="271.89"/><ellipse cx="22" cy="287.89" fill="#ADD1B2" rx="11" ry="11" style="stroke:#181818;stroke-width:1.0;"/><path d="M24.9688,293.5306 Q24.3906,293.8275 23.75,293.9681 Q23.1094,294.1244 22.4063,294.1244 Q19.9063,294.1244 18.5781,292.4838 Q17.2656,290.8275 17.2656,287.7025 Q17.2656,284.5775 18.5781,282.9213 Q19.9063,281.265 22.4063,281.265 Q23.1094,281.265 23.75,281.4213 Q24.4063,281.5775 24.9688,281.8744 L24.9688,284.5931 Q24.3438,284.015 23.75,283.7494 Q23.1563,283.4681 22.5313,283.4681 Q21.1875,283.4681 20.5,284.5463 Q19.8125,285.6088 19.8125,287.7025 Q19.8125,289.7963 20.5,290.8744 Q21.1875,291.9369 22.5313,291.9369 Q23.1563,291.9369 23.75,291.6713 Q24.3438,291.39 24.9688,290.8119 L24.9688,293.5306 Z " fill="#000000"/><text fill="#000000" font-family="sans-serif" font-size="14" lengthAdjust="spacing" textLength="167" x="36" y="292.7367">FixedWindowRateLimiter</text><line style="stroke:#181818;stroke-width:0.5;" x1="8" x2="205" y1="303.89" y2="303.89"/><rect fill="none" height="6" style="stroke:#C82930;stroke-width:1.0;" width="6" x="15" y="314.5384"/><text fill="#000000" font-family="sans-serif" font-size="14" lengthAdjust="spacing" textLength="83" x="27" y="320.8851">requests int</text><rect fill="none" height="6" style="stroke:#C82930;stroke-width:1.0;" width="6" x="15" y="330.8353"/><text fill="#000000" font-family="sans-serif" font-size="14" lengthAdjust="spacing" textLength="48" x="27" y="337.182">limit int</text><rect fill="none" height="6" style="stroke:#C82930;stroke-width:1.0;" width="6" x="15" y="347.1322"/><text fill="#000000" font-family="sans-serif" font-size="14" lengthAdjust="spacing" textLength="108" x="27" y="353.4789">reset time.Time</text><rect fill="none" height="6" style="stroke:#C82930;stroke-width:1.0;" width="6" x="15" y="363.4291"/><text fill="#000000" font-family="sans-serif" font-size="14" lengthAdjust="spacing" textLength="104" x="27" y="369.7757">mu sync.Mutex</text><rect fill="none" height="6" style="stroke:#C82930;stroke-width:1.0;" width="6" x="15" y="379.7259"/><text fill="#000000" font-family="sans-serif" font-size="14" lengthAdjust="spacing" textLength="149" x="27" y="386.0726">window time.Duration</text><line style="stroke:#181818;stroke-width:0.5;" x1="8" x2="205" y1="393.3744" y2="393.3744"/><ellipse cx="18" cy="407.0228" fill="#84BE84" rx="3" ry="3" style="stroke:#038048;stroke-width:1.0;"/><text fill="#000000" font-family="sans-serif" font-size="14" lengthAdjust="spacing" textLength="79" x="27" y="410.3695">Allow() bool</text></g><!--class SlidingWindowRateLimiter--><g id="elem_SlidingWindowRateLimiter"><rect codeLine="14" fill="#F1F1F1" height="129.4844" id="SlidingWindowRateLimiter" rx="2.5" ry="2.5" style="stroke:#181818;stroke-width:0.5;" width="208" x="241.5" y="280.04"/><ellipse cx="256.5" cy="296.04" fill="#ADD1B2" rx="11" ry="11" style="stroke:#181818;stroke-width:1.0;"/><path d="M259.4688,301.6806 Q258.8906,301.9775 258.25,302.1181 Q257.6094,302.2744 256.9063,302.2744 Q254.4063,302.2744 253.0781,300.6338 Q251.7656,298.9775 251.7656,295.8525 Q251.7656,292.7275 253.0781,291.0713 Q254.4063,289.415 256.9063,289.415 Q257.6094,289.415 258.25,289.5713 Q258.9063,289.7275 259.4688,290.0244 L259.4688,292.7431 Q258.8438,292.165 258.25,291.8994 Q257.6563,291.6181 257.0313,291.6181 Q255.6875,291.6181 255,292.6963 Q254.3125,293.7588 254.3125,295.8525 Q254.3125,297.9463 255,299.0244 Q255.6875,300.0869 257.0313,300.0869 Q257.6563,300.0869 258.25,299.8213 Q258.8438,299.54 259.4688,298.9619 L259.4688,301.6806 Z " fill="#000000"/><text fill="#000000" font-family="sans-serif" font-size="14" lengthAdjust="spacing" textLength="176" x="270.5" y="300.8867">SlidingWindowRateLimiter</text><line style="stroke:#181818;stroke-width:0.5;" x1="242.5" x2="448.5" y1="312.04" y2="312.04"/><rect fill="none" height="6" style="stroke:#C82930;stroke-width:1.0;" width="6" x="249.5" y="322.6884"/><text fill="#000000" font-family="sans-serif" font-size="14" lengthAdjust="spacing" textLength="144" x="261.5" y="329.0351">requests []time.Time</text><rect fill="none" height="6" style="stroke:#C82930;stroke-width:1.0;" width="6" x="249.5" y="338.9853"/><text fill="#000000" font-family="sans-serif" font-size="14" lengthAdjust="spacing" textLength="48" x="261.5" y="345.332">limit int</text><rect fill="none" height="6" style="stroke:#C82930;stroke-width:1.0;" width="6" x="249.5" y="355.2822"/><text fill="#000000" font-family="sans-serif" font-size="14" lengthAdjust="spacing" textLength="104" x="261.5" y="361.6289">mu sync.Mutex</text><rect fill="none" height="6" style="stroke:#C82930;stroke-width:1.0;" width="6" x="249.5" y="371.5791"/><text fill="#000000" font-family="sans-serif" font-size="14" lengthAdjust="spacing" textLength="149" x="261.5" y="377.9257">window time.Duration</text><line style="stroke:#181818;stroke-width:0.5;" x1="242.5" x2="448.5" y1="385.2275" y2="385.2275"/><ellipse cx="252.5" cy="398.8759" fill="#84BE84" rx="3" ry="3" style="stroke:#038048;stroke-width:1.0;"/><text fill="#000000" font-family="sans-serif" font-size="14" lengthAdjust="spacing" textLength="79" x="261.5" y="402.2226">Allow() bool</text></g><!--class TokenBucketRateLimiter--><g id="elem_TokenBucketRateLimiter"><rect codeLine="22" fill="#F1F1F1" height="145.7813" id="TokenBucketRateLimiter" rx="2.5" ry="2.5" style="stroke:#181818;stroke-width:0.5;" width="202" x="484.5" y="271.89"/><ellipse cx="499.5" cy="287.89" fill="#ADD1B2" rx="11" ry="11" style="stroke:#181818;stroke-width:1.0;"/><path d="M502.4688,293.5306 Q501.8906,293.8275 501.25,293.9681 Q500.6094,294.1244 499.9063,294.1244 Q497.4063,294.1244 496.0781,292.4838 Q494.7656,290.8275 494.7656,287.7025 Q494.7656,284.5775 496.0781,282.9213 Q497.4063,281.265 499.9063,281.265 Q500.6094,281.265 501.25,281.4213 Q501.9063,281.5775 502.4688,281.8744 L502.4688,284.5931 Q501.8438,284.015 501.25,283.7494 Q500.6563,283.4681 500.0313,283.4681 Q498.6875,283.4681 498,284.5463 Q497.3125,285.6088 497.3125,287.7025 Q497.3125,289.7963 498,290.8744 Q498.6875,291.9369 500.0313,291.9369 Q500.6563,291.9369 501.25,291.6713 Q501.8438,291.39 502.4688,290.8119 L502.4688,293.5306 Z " fill="#000000"/><text fill="#000000" font-family="sans-serif" font-size="14" lengthAdjust="spacing" textLength="170" x="513.5" y="292.7367">TokenBucketRateLimiter</text><line style="stroke:#181818;stroke-width:0.5;" x1="485.5" x2="685.5" y1="303.89" y2="303.89"/><rect fill="none" height="6" style="stroke:#C82930;stroke-width:1.0;" width="6" x="492.5" y="314.5384"/><text fill="#000000" font-family="sans-serif" font-size="14" lengthAdjust="spacing" textLength="77" x="504.5" y="320.8851">capacity int</text><rect fill="none" height="6" style="stroke:#C82930;stroke-width:1.0;" width="6" x="492.5" y="330.8353"/><text fill="#000000" font-family="sans-serif" font-size="14" lengthAdjust="spacing" textLength="69" x="504.5" y="337.182">tokens int</text><rect fill="none" height="6" style="stroke:#C82930;stroke-width:1.0;" width="6" x="492.5" y="347.1322"/><text fill="#000000" font-family="sans-serif" font-size="14" lengthAdjust="spacing" textLength="48" x="504.5" y="353.4789">rate int</text><rect fill="none" height="6" style="stroke:#C82930;stroke-width:1.0;" width="6" x="492.5" y="363.4291"/><text fill="#000000" font-family="sans-serif" font-size="14" lengthAdjust="spacing" textLength="140" x="504.5" y="369.7757">lastCheck time.Time</text><rect fill="none" height="6" style="stroke:#C82930;stroke-width:1.0;" width="6" x="492.5" y="379.7259"/><text fill="#000000" font-family="sans-serif" font-size="14" lengthAdjust="spacing" textLength="104" x="504.5" y="386.0726">mu sync.Mutex</text><line style="stroke:#181818;stroke-width:0.5;" x1="485.5" x2="685.5" y1="393.3744" y2="393.3744"/><ellipse cx="495.5" cy="407.0228" fill="#84BE84" rx="3" ry="3" style="stroke:#038048;stroke-width:1.0;"/><text fill="#000000" font-family="sans-serif" font-size="14" lengthAdjust="spacing" textLength="79" x="504.5" y="410.3695">Allow() bool</text></g><!--class LeakyBucketRateLimiter--><g id="elem_LeakyBucketRateLimiter"><rect codeLine="31" fill="#F1F1F1" height="145.7813" id="LeakyBucketRateLimiter" rx="2.5" ry="2.5" style="stroke:#181818;stroke-width:0.5;" width="197" x="722" y="271.89"/><ellipse cx="737" cy="287.89" fill="#ADD1B2" rx="11" ry="11" style="stroke:#181818;stroke-width:1.0;"/><path d="M739.9688,293.5306 Q739.3906,293.8275 738.75,293.9681 Q738.1094,294.1244 737.4063,294.1244 Q734.9063,294.1244 733.5781,292.4838 Q732.2656,290.8275 732.2656,287.7025 Q732.2656,284.5775 733.5781,282.9213 Q734.9063,281.265 737.4063,281.265 Q738.1094,281.265 738.75,281.4213 Q739.4063,281.5775 739.9688,281.8744 L739.9688,284.5931 Q739.3438,284.015 738.75,283.7494 Q738.1563,283.4681 737.5313,283.4681 Q736.1875,283.4681 735.5,284.5463 Q734.8125,285.6088 734.8125,287.7025 Q734.8125,289.7963 735.5,290.8744 Q736.1875,291.9369 737.5313,291.9369 Q738.1563,291.9369 738.75,291.6713 Q739.3438,291.39 739.9688,290.8119 L739.9688,293.5306 Z " fill="#000000"/><text fill="#000000" font-family="sans-serif" font-size="14" lengthAdjust="spacing" textLength="165" x="751" y="292.7367">LeakyBucketRateLimiter</text><line style="stroke:#181818;stroke-width:0.5;" x1="723" x2="918" y1="303.89" y2="303.89"/><rect fill="none" height="6" style="stroke:#C82930;stroke-width:1.0;" width="6" x="730" y="314.5384"/><text fill="#000000" font-family="sans-serif" font-size="14" lengthAdjust="spacing" textLength="77" x="742" y="320.8851">capacity int</text><rect fill="none" height="6" style="stroke:#C82930;stroke-width:1.0;" width="6" x="730" y="330.8353"/><text fill="#000000" font-family="sans-serif" font-size="14" lengthAdjust="spacing" textLength="66" x="742" y="337.182">queue int</text><rect fill="none" height="6" style="stroke:#C82930;stroke-width:1.0;" width="6" x="730" y="347.1322"/><text fill="#000000" font-family="sans-serif" font-size="14" lengthAdjust="spacing" textLength="48" x="742" y="353.4789">rate int</text><rect fill="none" height="6" style="stroke:#C82930;stroke-width:1.0;" width="6" x="730" y="363.4291"/><text fill="#000000" font-family="sans-serif" font-size="14" lengthAdjust="spacing" textLength="140" x="742" y="369.7757">lastCheck time.Time</text><rect fill="none" height="6" style="stroke:#C82930;stroke-width:1.0;" width="6" x="730" y="379.7259"/><text fill="#000000" font-family="sans-serif" font-size="14" lengthAdjust="spacing" textLength="104" x="742" y="386.0726">mu sync.Mutex</text><line style="stroke:#181818;stroke-width:0.5;" x1="723" x2="918" y1="393.3744" y2="393.3744"/><ellipse cx="733" cy="407.0228" fill="#84BE84" rx="3" ry="3" style="stroke:#038048;stroke-width:1.0;"/><text fill="#000000" font-family="sans-serif" font-size="14" lengthAdjust="spacing" textLength="79" x="742" y="410.3695">Allow() bool</text></g><!--class RateLimiterContext--><g id="elem_RateLimiterContext"><rect codeLine="40" fill="#F1F1F1" height="80.5938" id="RateLimiterContext" rx="2.5" ry="2.5" style="stroke:#181818;stroke-width:0.5;" width="163" x="384" y="7"/><ellipse cx="399" cy="23" fill="#ADD1B2" rx="11" ry="11" style="stroke:#181818;stroke-width:1.0;"/><path d="M401.9688,28.6406 Q401.3906,28.9375 400.75,29.0781 Q400.1094,29.2344 399.4063,29.2344 Q396.9063,29.2344 395.5781,27.5938 Q394.2656,25.9375 394.2656,22.8125 Q394.2656,19.6875 395.5781,18.0313 Q396.9063,16.375 399.4063,16.375 Q400.1094,16.375 400.75,16.5313 Q401.4063,16.6875 401.9688,16.9844 L401.9688,19.7031 Q401.3438,19.125 400.75,18.8594 Q400.1563,18.5781 399.5313,18.5781 Q398.1875,18.5781 397.5,19.6563 Q396.8125,20.7188 396.8125,22.8125 Q396.8125,24.9063 397.5,25.9844 Q398.1875,27.0469 399.5313,27.0469 Q400.1563,27.0469 400.75,26.7813 Q401.3438,26.5 401.9688,25.9219 L401.9688,28.6406 Z " fill="#000000"/><text fill="#000000" font-family="sans-serif" font-size="14" lengthAdjust="spacing" textLength="131" x="413" y="27.8467">RateLimiterContext</text><line style="stroke:#181818;stroke-width:0.5;" x1="385" x2="546" y1="39" y2="39"/><rect fill="none" height="6" style="stroke:#C82930;stroke-width:1.0;" width="6" x="392" y="49.6484"/><text fill="#000000" font-family="sans-serif" font-size="14" lengthAdjust="spacing" textLength="137" x="404" y="55.9951">strategy RateLimiter</text><line style="stroke:#181818;stroke-width:0.5;" x1="385" x2="546" y1="63.2969" y2="63.2969"/><ellipse cx="395" cy="76.9453" fill="#84BE84" rx="3" ry="3" style="stroke:#038048;stroke-width:1.0;"/><text fill="#000000" font-family="sans-serif" font-size="14" lengthAdjust="spacing" textLength="79" x="404" y="80.292">Allow() bool</text></g><!--reverse link RateLimiter to FixedWindowRateLimiter--><g id="link_RateLimiter_FixedWindowRateLimiter"><path codeLine="45" d="M393.8231,203.6302 C343.9531,220.1502 285.79,241.37 223.5,271.89 C217.83,274.67 212.07,277.64 206.32,280.74 " fill="none" id="RateLimiter-backto-FixedWindowRateLimiter" style="stroke:#181818;stroke-width:1.0;"/><polygon fill="none" points="410.91,197.97,391.9364,197.9346,395.7099,209.3259,410.91,197.97" style="stroke:#181818;stroke-width:1.0;"/></g><!--reverse link RateLimiter to SlidingWindowRateLimiter--><g id="link_RateLimiter_SlidingWindowRateLimiter"><path codeLine="46" d="M431.6876,226.6748 C417.5876,245.8248 409.73,256.51 392.66,279.71 " fill="none" id="RateLimiter-backto-SlidingWindowRateLimiter" style="stroke:#181818;stroke-width:1.0;"/><polygon fill="none" points="442.36,212.18,426.856,223.1173,436.5192,230.2323,442.36,212.18" style="stroke:#181818;stroke-width:1.0;"/></g><!--reverse link RateLimiter to TokenBucketRateLimiter--><g id="link_RateLimiter_TokenBucketRateLimiter"><path codeLine="47" d="M499.3094,226.677 C511.7694,243.607 517.03,250.75 532.35,271.57 " fill="none" id="RateLimiter-backto-TokenBucketRateLimiter" style="stroke:#181818;stroke-width:1.0;"/><polygon fill="none" points="488.64,212.18,494.4771,230.2335,504.1417,223.1206,488.64,212.18" style="stroke:#181818;stroke-width:1.0;"/></g><!--reverse link RateLimiter to LeakyBucketRateLimiter--><g id="link_RateLimiter_LeakyBucketRateLimiter"><path codeLine="48" d="M537.441,204.0678 C586.711,220.6378 643.41,241.65 704.5,271.89 C710.13,274.67 715.83,277.65 721.54,280.76 " fill="none" id="RateLimiter-backto-LeakyBucketRateLimiter" style="stroke:#181818;stroke-width:1.0;"/><polygon fill="none" points="520.38,198.33,535.5284,209.7548,539.3536,198.3808,520.38,198.33" style="stroke:#181818;stroke-width:1.0;"/></g><!--reverse link RateLimiterContext to RateLimiter--><g id="link_RateLimiterContext_RateLimiter"><path codeLine="49" d="M465.5,99.79 C465.5,118.83 465.5,129.37 465.5,147.24 " fill="none" id="RateLimiterContext-backto-RateLimiter" style="stroke:#181818;stroke-width:1.0;"/><polygon fill="#181818" points="465.5,87.79,461.5,93.79,465.5,99.79,469.5,93.79,465.5,87.79" style="stroke:#181818;stroke-width:1.0;"/></g><!--SRC=[hPB1Zi8W48RlF0L7rqrz0YzhDvxqeYPxs7X0Ej59AMWPqZRklhkWqLJRgebUI6RucF_d1wc4jNmc22QO8K7Ezupppo-bJD7xu2jZ5FjdJ1wnCPQG_A1EJ75x8ifXvy2IvQWfr2fideiSB10dp62my4jePOxRIil1r16KeL4SvvwWRvSBGgExhSmL9gZNZypyBgz4hqozw61XKj0Z9rEWXhuKMo6HghCK1VOIZPyCbvY4fNW3ChsVJeU72OYqUjA3JyJ1-otKT6EZFKedUKj1OrtLWROfTT_3loZg-6HDhki7DCdsbsfoxMcobXlsFLr73W00]--></g></svg>