<?xml version="1.0" encoding="us-ascii" standalone="no"?><svg xmlns="http://www.w3.org/2000/svg" xmlns:xlink="http://www.w3.org/1999/xlink" contentStyleType="text/css" height="901px" preserveAspectRatio="none" style="width:1039px;height:901px;background:#FFFFFF;" version="1.1" viewBox="0 0 1039 901" width="1039px" zoomAndPan="magnify"><defs/><g><!--class Vehicle--><g id="elem_Vehicle"><rect codeLine="1" fill="#F1F1F1" height="64.2969" id="Vehicle" rx="2.5" ry="2.5" style="stroke:#181818;stroke-width:0.5;" width="188" x="341" y="830.12"/><ellipse cx="405.75" cy="846.12" fill="#B4A7E5" rx="11" ry="11" style="stroke:#181818;stroke-width:1.0;"/><path d="M401.6719,841.8856 L401.6719,839.7294 L409.0625,839.7294 L409.0625,841.8856 L406.5938,841.8856 L406.5938,849.9638 L409.0625,849.9638 L409.0625,852.12 L401.6719,852.12 L401.6719,849.9638 L404.1406,849.9638 L404.1406,841.8856 L401.6719,841.8856 Z " fill="#000000"/><text fill="#000000" font-family="sans-serif" font-size="14" font-style="italic" lengthAdjust="spacing" textLength="50" x="426.25" y="850.9667">Vehicle</text><line style="stroke:#181818;stroke-width:0.5;" x1="342" x2="528" y1="862.12" y2="862.12"/><line style="stroke:#181818;stroke-width:0.5;" x1="342" x2="528" y1="870.12" y2="870.12"/><ellipse cx="352" cy="883.7684" fill="#84BE84" rx="3" ry="3" style="stroke:#038048;stroke-width:1.0;"/><text fill="#000000" font-family="sans-serif" font-size="14" lengthAdjust="spacing" textLength="162" x="361" y="887.1151">GetVehicleType() string</text></g><!--class Car--><g id="elem_Car"><rect codeLine="5" fill="#F1F1F1" height="64.2969" id="Car" rx="2.5" ry="2.5" style="stroke:#181818;stroke-width:0.5;" width="188" x="7" y="665.08"/><ellipse cx="85.25" cy="681.08" fill="#ADD1B2" rx="11" ry="11" style="stroke:#181818;stroke-width:1.0;"/><path d="M88.2188,686.7206 Q87.6406,687.0175 87,687.1581 Q86.3594,687.3144 85.6563,687.3144 Q83.1563,687.3144 81.8281,685.6737 Q80.5156,684.0175 80.5156,680.8925 Q80.5156,677.7675 81.8281,676.1112 Q83.1563,674.455 85.6563,674.455 Q86.3594,674.455 87,674.6112 Q87.6563,674.7675 88.2188,675.0644 L88.2188,677.7831 Q87.5938,677.205 87,676.9394 Q86.4063,676.6581 85.7813,676.6581 Q84.4375,676.6581 83.75,677.7362 Q83.0625,678.7987 83.0625,680.8925 Q83.0625,682.9862 83.75,684.0644 Q84.4375,685.1269 85.7813,685.1269 Q86.4063,685.1269 87,684.8612 Q87.5938,684.58 88.2188,684.0019 L88.2188,686.7206 Z " fill="#000000"/><text fill="#000000" font-family="sans-serif" font-size="14" lengthAdjust="spacing" textLength="23" x="105.75" y="685.9267">Car</text><line style="stroke:#181818;stroke-width:0.5;" x1="8" x2="194" y1="697.08" y2="697.08"/><line style="stroke:#181818;stroke-width:0.5;" x1="8" x2="194" y1="705.08" y2="705.08"/><ellipse cx="18" cy="718.7284" fill="#84BE84" rx="3" ry="3" style="stroke:#038048;stroke-width:1.0;"/><text fill="#000000" font-family="sans-serif" font-size="14" lengthAdjust="spacing" textLength="162" x="27" y="722.0751">GetVehicleType() string</text></g><!--class Bike--><g id="elem_Bike"><rect codeLine="9" fill="#F1F1F1" height="64.2969" id="Bike" rx="2.5" ry="2.5" style="stroke:#181818;stroke-width:0.5;" width="188" x="230" y="665.08"/><ellipse cx="304.75" cy="681.08" fill="#ADD1B2" rx="11" ry="11" style="stroke:#181818;stroke-width:1.0;"/><path d="M307.7188,686.7206 Q307.1406,687.0175 306.5,687.1581 Q305.8594,687.3144 305.1563,687.3144 Q302.6563,687.3144 301.3281,685.6737 Q300.0156,684.0175 300.0156,680.8925 Q300.0156,677.7675 301.3281,676.1112 Q302.6563,674.455 305.1563,674.455 Q305.8594,674.455 306.5,674.6112 Q307.1563,674.7675 307.7188,675.0644 L307.7188,677.7831 Q307.0938,677.205 306.5,676.9394 Q305.9063,676.6581 305.2813,676.6581 Q303.9375,676.6581 303.25,677.7362 Q302.5625,678.7987 302.5625,680.8925 Q302.5625,682.9862 303.25,684.0644 Q303.9375,685.1269 305.2813,685.1269 Q305.9063,685.1269 306.5,684.8612 Q307.0938,684.58 307.7188,684.0019 L307.7188,686.7206 Z " fill="#000000"/><text fill="#000000" font-family="sans-serif" font-size="14" lengthAdjust="spacing" textLength="30" x="325.25" y="685.9267">Bike</text><line style="stroke:#181818;stroke-width:0.5;" x1="231" x2="417" y1="697.08" y2="697.08"/><line style="stroke:#181818;stroke-width:0.5;" x1="231" x2="417" y1="705.08" y2="705.08"/><ellipse cx="241" cy="718.7284" fill="#84BE84" rx="3" ry="3" style="stroke:#038048;stroke-width:1.0;"/><text fill="#000000" font-family="sans-serif" font-size="14" lengthAdjust="spacing" textLength="162" x="250" y="722.0751">GetVehicleType() string</text></g><!--class Truck--><g id="elem_Truck"><rect codeLine="13" fill="#F1F1F1" height="64.2969" id="Truck" rx="2.5" ry="2.5" style="stroke:#181818;stroke-width:0.5;" width="188" x="453" y="665.08"/><ellipse cx="523.25" cy="681.08" fill="#ADD1B2" rx="11" ry="11" style="stroke:#181818;stroke-width:1.0;"/><path d="M526.2188,686.7206 Q525.6406,687.0175 525,687.1581 Q524.3594,687.3144 523.6563,687.3144 Q521.1563,687.3144 519.8281,685.6737 Q518.5156,684.0175 518.5156,680.8925 Q518.5156,677.7675 519.8281,676.1112 Q521.1563,674.455 523.6563,674.455 Q524.3594,674.455 525,674.6112 Q525.6563,674.7675 526.2188,675.0644 L526.2188,677.7831 Q525.5938,677.205 525,676.9394 Q524.4063,676.6581 523.7813,676.6581 Q522.4375,676.6581 521.75,677.7362 Q521.0625,678.7987 521.0625,680.8925 Q521.0625,682.9862 521.75,684.0644 Q522.4375,685.1269 523.7813,685.1269 Q524.4063,685.1269 525,684.8612 Q525.5938,684.58 526.2188,684.0019 L526.2188,686.7206 Z " fill="#000000"/><text fill="#000000" font-family="sans-serif" font-size="14" lengthAdjust="spacing" textLength="39" x="543.75" y="685.9267">Truck</text><line style="stroke:#181818;stroke-width:0.5;" x1="454" x2="640" y1="697.08" y2="697.08"/><line style="stroke:#181818;stroke-width:0.5;" x1="454" x2="640" y1="705.08" y2="705.08"/><ellipse cx="464" cy="718.7284" fill="#84BE84" rx="3" ry="3" style="stroke:#038048;stroke-width:1.0;"/><text fill="#000000" font-family="sans-serif" font-size="14" lengthAdjust="spacing" textLength="162" x="473" y="722.0751">GetVehicleType() string</text></g><!--class ParkingSpot--><g id="elem_ParkingSpot"><rect codeLine="21" fill="#F1F1F1" height="145.7813" id="ParkingSpot" rx="2.5" ry="2.5" style="stroke:#181818;stroke-width:0.5;" width="229" x="676.5" y="624.34"/><ellipse cx="745.25" cy="640.34" fill="#ADD1B2" rx="11" ry="11" style="stroke:#181818;stroke-width:1.0;"/><path d="M748.2188,645.9806 Q747.6406,646.2775 747,646.4181 Q746.3594,646.5744 745.6563,646.5744 Q743.1563,646.5744 741.8281,644.9338 Q740.5156,643.2775 740.5156,640.1525 Q740.5156,637.0275 741.8281,635.3713 Q743.1563,633.715 745.6563,633.715 Q746.3594,633.715 747,633.8713 Q747.6563,634.0275 748.2188,634.3244 L748.2188,637.0431 Q747.5938,636.465 747,636.1994 Q746.4063,635.9181 745.7813,635.9181 Q744.4375,635.9181 743.75,636.9963 Q743.0625,638.0588 743.0625,640.1525 Q743.0625,642.2463 743.75,643.3244 Q744.4375,644.3869 745.7813,644.3869 Q746.4063,644.3869 747,644.1213 Q747.5938,643.84 748.2188,643.2619 L748.2188,645.9806 Z " fill="#000000"/><text fill="#000000" font-family="sans-serif" font-size="14" lengthAdjust="spacing" textLength="83" x="765.75" y="645.1867">ParkingSpot</text><line style="stroke:#181818;stroke-width:0.5;" x1="677.5" x2="904.5" y1="656.34" y2="656.34"/><rect fill="none" height="6" style="stroke:#C82930;stroke-width:1.0;" width="6" x="684.5" y="666.9884"/><text fill="#000000" font-family="sans-serif" font-size="14" lengthAdjust="spacing" textLength="66" x="696.5" y="673.3351">spotID int</text><rect fill="none" height="6" style="stroke:#C82930;stroke-width:1.0;" width="6" x="684.5" y="683.2853"/><text fill="#000000" font-family="sans-serif" font-size="14" lengthAdjust="spacing" textLength="108" x="696.5" y="689.632">spotType string</text><rect fill="none" height="6" style="stroke:#C82930;stroke-width:1.0;" width="6" x="684.5" y="699.5822"/><text fill="#000000" font-family="sans-serif" font-size="14" lengthAdjust="spacing" textLength="98" x="696.5" y="705.9289">occupied bool</text><line style="stroke:#181818;stroke-width:0.5;" x1="677.5" x2="904.5" y1="713.2306" y2="713.2306"/><ellipse cx="687.5" cy="726.8791" fill="#84BE84" rx="3" ry="3" style="stroke:#038048;stroke-width:1.0;"/><text fill="#000000" font-family="sans-serif" font-size="14" lengthAdjust="spacing" textLength="203" x="696.5" y="730.2257">CanPark(vehicle Vehicle) bool</text><ellipse cx="687.5" cy="743.1759" fill="#84BE84" rx="3" ry="3" style="stroke:#038048;stroke-width:1.0;"/><text fill="#000000" font-family="sans-serif" font-size="14" lengthAdjust="spacing" textLength="90" x="696.5" y="746.5226">ParkVehicle()</text><ellipse cx="687.5" cy="759.4728" fill="#84BE84" rx="3" ry="3" style="stroke:#038048;stroke-width:1.0;"/><text fill="#000000" font-family="sans-serif" font-size="14" lengthAdjust="spacing" textLength="117" x="696.5" y="762.8195">RemoveVehicle()</text></g><!--class Ticket--><g id="elem_Ticket"><rect codeLine="30" fill="#F1F1F1" height="178.375" id="Ticket" rx="2.5" ry="2.5" style="stroke:#181818;stroke-width:0.5;" width="163" x="672.5" y="196.48"/><ellipse cx="728.75" cy="212.48" fill="#ADD1B2" rx="11" ry="11" style="stroke:#181818;stroke-width:1.0;"/><path d="M731.7188,218.1206 Q731.1406,218.4175 730.5,218.5581 Q729.8594,218.7144 729.1563,218.7144 Q726.6563,218.7144 725.3281,217.0737 Q724.0156,215.4175 724.0156,212.2925 Q724.0156,209.1675 725.3281,207.5112 Q726.6563,205.855 729.1563,205.855 Q729.8594,205.855 730.5,206.0112 Q731.1563,206.1675 731.7188,206.4644 L731.7188,209.1831 Q731.0938,208.605 730.5,208.3394 Q729.9063,208.0581 729.2813,208.0581 Q727.9375,208.0581 727.25,209.1362 Q726.5625,210.1987 726.5625,212.2925 Q726.5625,214.3862 727.25,215.4644 Q727.9375,216.5269 729.2813,216.5269 Q729.9063,216.5269 730.5,216.2612 Q731.0938,215.98 731.7188,215.4019 L731.7188,218.1206 Z " fill="#000000"/><text fill="#000000" font-family="sans-serif" font-size="14" lengthAdjust="spacing" textLength="42" x="749.25" y="217.3267">Ticket</text><line style="stroke:#181818;stroke-width:0.5;" x1="673.5" x2="834.5" y1="228.48" y2="228.48"/><rect fill="none" height="6" style="stroke:#C82930;stroke-width:1.0;" width="6" x="680.5" y="239.1284"/><text fill="#000000" font-family="sans-serif" font-size="14" lengthAdjust="spacing" textLength="102" x="692.5" y="245.4751">vehicle Vehicle</text><rect fill="none" height="6" style="stroke:#C82930;stroke-width:1.0;" width="6" x="680.5" y="255.4253"/><text fill="#000000" font-family="sans-serif" font-size="14" lengthAdjust="spacing" textLength="118" x="692.5" y="261.772">spot ParkingSpot</text><rect fill="none" height="6" style="stroke:#C82930;stroke-width:1.0;" width="6" x="680.5" y="271.7222"/><text fill="#000000" font-family="sans-serif" font-size="14" lengthAdjust="spacing" textLength="121" x="692.5" y="278.0689">level ParkingLevel</text><rect fill="none" height="6" style="stroke:#C82930;stroke-width:1.0;" width="6" x="680.5" y="288.0191"/><text fill="#000000" font-family="sans-serif" font-size="14" lengthAdjust="spacing" textLength="137" x="692.5" y="294.3657">startTime time.Time</text><rect fill="none" height="6" style="stroke:#C82930;stroke-width:1.0;" width="6" x="680.5" y="304.3159"/><text fill="#000000" font-family="sans-serif" font-size="14" lengthAdjust="spacing" textLength="133" x="692.5" y="310.6626">endTime time.Time</text><rect fill="none" height="6" style="stroke:#C82930;stroke-width:1.0;" width="6" x="680.5" y="320.6128"/><text fill="#000000" font-family="sans-serif" font-size="14" lengthAdjust="spacing" textLength="73" x="692.5" y="326.9595">fee float64</text><line style="stroke:#181818;stroke-width:0.5;" x1="673.5" x2="834.5" y1="334.2612" y2="334.2612"/><ellipse cx="683.5" cy="347.9097" fill="#84BE84" rx="3" ry="3" style="stroke:#038048;stroke-width:1.0;"/><text fill="#000000" font-family="sans-serif" font-size="14" lengthAdjust="spacing" textLength="88" x="692.5" y="351.2564">EndParking()</text><ellipse cx="683.5" cy="364.2066" fill="#84BE84" rx="3" ry="3" style="stroke:#038048;stroke-width:1.0;"/><text fill="#000000" font-family="sans-serif" font-size="14" lengthAdjust="spacing" textLength="99" x="692.5" y="367.5532">CalculateFee()</text></g><!--class ParkingLevel--><g id="elem_ParkingLevel"><rect codeLine="41" fill="#F1F1F1" height="129.4844" id="ParkingLevel" rx="2.5" ry="2.5" style="stroke:#181818;stroke-width:0.5;" width="286" x="746" y="434.86"/><ellipse cx="841.75" cy="450.86" fill="#ADD1B2" rx="11" ry="11" style="stroke:#181818;stroke-width:1.0;"/><path d="M844.7188,456.5006 Q844.1406,456.7975 843.5,456.9381 Q842.8594,457.0944 842.1563,457.0944 Q839.6563,457.0944 838.3281,455.4537 Q837.0156,453.7975 837.0156,450.6725 Q837.0156,447.5475 838.3281,445.8912 Q839.6563,444.235 842.1563,444.235 Q842.8594,444.235 843.5,444.3912 Q844.1563,444.5475 844.7188,444.8444 L844.7188,447.5631 Q844.0938,446.985 843.5,446.7194 Q842.9063,446.4381 842.2813,446.4381 Q840.9375,446.4381 840.25,447.5162 Q839.5625,448.5787 839.5625,450.6725 Q839.5625,452.7662 840.25,453.8444 Q840.9375,454.9069 842.2813,454.9069 Q842.9063,454.9069 843.5,454.6412 Q844.0938,454.36 844.7188,453.7819 L844.7188,456.5006 Z " fill="#000000"/><text fill="#000000" font-family="sans-serif" font-size="14" lengthAdjust="spacing" textLength="86" x="862.25" y="455.7067">ParkingLevel</text><line style="stroke:#181818;stroke-width:0.5;" x1="747" x2="1031" y1="466.86" y2="466.86"/><rect fill="none" height="6" style="stroke:#C82930;stroke-width:1.0;" width="6" x="754" y="477.5084"/><text fill="#000000" font-family="sans-serif" font-size="14" lengthAdjust="spacing" textLength="66" x="766" y="483.8551">levelID int</text><rect fill="none" height="6" style="stroke:#C82930;stroke-width:1.0;" width="6" x="754" y="493.8053"/><text fill="#000000" font-family="sans-serif" font-size="14" lengthAdjust="spacing" textLength="158" x="766" y="500.152">carSpots ParkingSpot[]</text><rect fill="none" height="6" style="stroke:#C82930;stroke-width:1.0;" width="6" x="754" y="510.1022"/><text fill="#000000" font-family="sans-serif" font-size="14" lengthAdjust="spacing" textLength="166" x="766" y="516.4489">bikeSpots ParkingSpot[]</text><rect fill="none" height="6" style="stroke:#C82930;stroke-width:1.0;" width="6" x="754" y="526.3991"/><text fill="#000000" font-family="sans-serif" font-size="14" lengthAdjust="spacing" textLength="172" x="766" y="532.7457">truckSpots ParkingSpot[]</text><line style="stroke:#181818;stroke-width:0.5;" x1="747" x2="1031" y1="540.0475" y2="540.0475"/><ellipse cx="757" cy="553.6959" fill="#84BE84" rx="3" ry="3" style="stroke:#038048;stroke-width:1.0;"/><text fill="#000000" font-family="sans-serif" font-size="14" lengthAdjust="spacing" textLength="260" x="766" y="557.0426">FindSpot(vehicle Vehicle) ParkingSpot</text></g><!--class ParkingLot--><g id="elem_ParkingLot"><rect codeLine="49" fill="#F1F1F1" height="129.4844" id="ParkingLot" rx="2.5" ry="2.5" style="stroke:#181818;stroke-width:0.5;" width="219" x="711.5" y="7"/><ellipse cx="780.75" cy="23" fill="#ADD1B2" rx="11" ry="11" style="stroke:#181818;stroke-width:1.0;"/><path d="M783.7188,28.6406 Q783.1406,28.9375 782.5,29.0781 Q781.8594,29.2344 781.1563,29.2344 Q778.6563,29.2344 777.3281,27.5938 Q776.0156,25.9375 776.0156,22.8125 Q776.0156,19.6875 777.3281,18.0313 Q778.6563,16.375 781.1563,16.375 Q781.8594,16.375 782.5,16.5313 Q783.1563,16.6875 783.7188,16.9844 L783.7188,19.7031 Q783.0938,19.125 782.5,18.8594 Q781.9063,18.5781 781.2813,18.5781 Q779.9375,18.5781 779.25,19.6563 Q778.5625,20.7188 778.5625,22.8125 Q778.5625,24.9063 779.25,25.9844 Q779.9375,27.0469 781.2813,27.0469 Q781.9063,27.0469 782.5,26.7813 Q783.0938,26.5 783.7188,25.9219 L783.7188,28.6406 Z " fill="#000000"/><text fill="#000000" font-family="sans-serif" font-size="14" lengthAdjust="spacing" textLength="72" x="801.25" y="27.8467">ParkingLot</text><line style="stroke:#181818;stroke-width:0.5;" x1="712.5" x2="929.5" y1="39" y2="39"/><rect fill="none" height="6" style="stroke:#C82930;stroke-width:1.0;" width="6" x="719.5" y="49.6484"/><text fill="#000000" font-family="sans-serif" font-size="14" lengthAdjust="spacing" textLength="139" x="731.5" y="55.9951">levels ParkingLevel[]</text><rect fill="none" height="6" style="stroke:#C82930;stroke-width:1.0;" width="6" x="719.5" y="65.9453"/><text fill="#000000" font-family="sans-serif" font-size="14" lengthAdjust="spacing" textLength="102" x="731.5" y="72.292">tickets Ticket[]</text><line style="stroke:#181818;stroke-width:0.5;" x1="712.5" x2="929.5" y1="79.5938" y2="79.5938"/><ellipse cx="722.5" cy="93.2422" fill="#84BE84" rx="3" ry="3" style="stroke:#038048;stroke-width:1.0;"/><text fill="#000000" font-family="sans-serif" font-size="14" lengthAdjust="spacing" textLength="193" x="731.5" y="96.5889">AddLevel(level ParkingLevel)</text><ellipse cx="722.5" cy="109.5391" fill="#84BE84" rx="3" ry="3" style="stroke:#038048;stroke-width:1.0;"/><text fill="#000000" font-family="sans-serif" font-size="14" lengthAdjust="spacing" textLength="188" x="731.5" y="112.8857">Park(vehicle Vehicle) Ticket</text><ellipse cx="722.5" cy="125.8359" fill="#84BE84" rx="3" ry="3" style="stroke:#038048;stroke-width:1.0;"/><text fill="#000000" font-family="sans-serif" font-size="14" lengthAdjust="spacing" textLength="143" x="731.5" y="129.1826">Unpark(ticket Ticket)</text></g><!--link Car to Vehicle--><g id="link_Car_Vehicle"><path codeLine="17" d="M145.93,729.72 C165.96,743.05 190.15,758.22 213,770.12 C256.14,792.59 300.516,811.3505 342.106,827.4805 " fill="none" id="Car-to-Vehicle" style="stroke:#181818;stroke-width:1.0;"/><polygon fill="#181818" points="347.7,829.65,340.7553,822.6663,343.0383,827.842,337.8626,830.125,347.7,829.65" style="stroke:#181818;stroke-width:1.0;"/></g><!--link Bike to Vehicle--><g id="link_Bike_Vehicle"><path codeLine="18" d="M345.4,729.67 C364.99,758.45 390.4631,795.8605 410.0931,824.6905 " fill="none" id="Bike-to-Vehicle" style="stroke:#181818;stroke-width:1.0;"/><polygon fill="#181818" points="413.47,829.65,411.711,819.9595,410.6559,825.5171,405.0984,824.462,413.47,829.65" style="stroke:#181818;stroke-width:1.0;"/></g><!--link Truck to Vehicle--><g id="link_Truck_Vehicle"><path codeLine="19" d="M525.41,729.67 C505.64,758.45 479.9279,795.8749 460.1179,824.7049 " fill="none" id="Truck-to-Vehicle" style="stroke:#181818;stroke-width:1.0;"/><polygon fill="#181818" points="456.72,829.65,465.1136,824.4976,459.5516,825.5291,458.5202,819.9671,456.72,829.65" style="stroke:#181818;stroke-width:1.0;"/></g><!--link Ticket to ParkingSpot--><g id="link_Ticket_ParkingSpot"><path codeLine="57" d="M732.28,375.11 C722.16,430.11 715.07,501.99 729,564.34 C733.49,584.47 738.8922,599.7039 747.6022,618.5439 " fill="none" id="Ticket-to-ParkingSpot" style="stroke:#181818;stroke-width:1.0;"/><polygon fill="#181818" points="750.12,623.99,749.974,614.1422,748.0218,619.4515,742.7125,617.4993,750.12,623.99" style="stroke:#181818;stroke-width:1.0;"/></g><!--link Ticket to ParkingLevel--><g id="link_Ticket_ParkingLevel"><path codeLine="58" d="M810.47,375.32 C823.11,395.17 833.0679,410.7886 844.9279,429.4186 " fill="none" id="Ticket-to-ParkingLevel" style="stroke:#181818;stroke-width:1.0;"/><polygon fill="#181818" points="848.15,434.48,846.6911,424.7398,845.4649,430.2622,839.9425,429.036,848.15,434.48" style="stroke:#181818;stroke-width:1.0;"/></g><!--link ParkingSpot to Vehicle--><g id="link_ParkingSpot_Vehicle"><path codeLine="59" d="M676.05,761.35 C669.97,764.37 663.93,767.32 658,770.12 C612.53,791.63 566.163,810.8422 523.843,827.5022 " fill="none" id="ParkingSpot-to-Vehicle" style="stroke:#181818;stroke-width:1.0;"/><polygon fill="#181818" points="518.26,829.7,528.0997,830.1252,522.9125,827.8685,525.1692,822.6813,518.26,829.7" style="stroke:#181818;stroke-width:1.0;"/></g><!--link ParkingLevel to ParkingSpot--><g id="link_ParkingLevel_ParkingSpot"><path codeLine="60" d="M856.91,564.66 C847.42,583.6 839.6588,599.1062 829.9188,618.5362 " fill="none" id="ParkingLevel-to-ParkingSpot" style="stroke:#181818;stroke-width:1.0;"/><polygon fill="#181818" points="827.23,623.9,834.8391,617.6468,829.4707,619.4302,827.6873,614.0618,827.23,623.9" style="stroke:#181818;stroke-width:1.0;"/></g><!--link ParkingLot to ParkingLevel--><g id="link_ParkingLot_ParkingLevel"><path codeLine="61" d="M839.34,136.92 C844.32,155.97 849.33,176.96 853,196.48 C868.32,277.99 877.8549,367.1739 883.3549,428.5939 " fill="none" id="ParkingLot-to-ParkingLevel" style="stroke:#181818;stroke-width:1.0;"/><polygon fill="#181818" points="883.89,434.57,887.0713,425.2491,883.444,429.5899,879.1032,425.9626,883.89,434.57" style="stroke:#181818;stroke-width:1.0;"/></g><!--link ParkingLot to Ticket--><g id="link_ParkingLot_Ticket"><path codeLine="62" d="M800.72,136.9 C794.82,155.54 790.0898,170.5195 783.8098,190.3695 " fill="none" id="ParkingLot-to-Ticket" style="stroke:#181818;stroke-width:1.0;"/><polygon fill="#181818" points="782,196.09,788.5284,188.7157,783.5082,191.3229,780.901,186.3026,782,196.09" style="stroke:#181818;stroke-width:1.0;"/></g><!--SRC=[ZLB1JeGm5Bpp5Uy8sU39U3HHT8s91wFenNZebeSsT0ifXSGO_rtwQDcox6RtGkYybvdfJ8Kog4l64TxnMt29y1i1hE01ZGFodmRZ15gZXVgA_gA8IzQsa35zxkgjgCwcpNN7gzFBLZrDhxtfY2H2OEG94IVmp7GraBmsjI6P5DhXz_4EX3BJqUfvDOlLd7UDm08sTIt9MyQKPOfxbvfJINORTkpGE27a1RTrZpjiTsd1A_HszXWdJw5p0YNsA3twP0_Zhc7Qv6ABO8RFXVqZ75Ln02qHePGrCrUNvF5U5OxHcSwOv9ra1jSuynpgEkTaA4YICstDpZB_-AJHPkZhsCpOwWuFLx0Mgh37PV1XF0kNKzdaSUxUor89lWmdTrCKj1ClmqwcbfTUHWvQU5EDNHdPtO1YTANR9nfQNy9ZjU6x3P_rh8Tzik3wnmZzRDJz1m00]--></g></svg>